<svg width="161" height="147" viewBox="0 0 161 147" fill="none" xmlns="http://www.w3.org/2000/svg">
<path d="M50.8141 37.3057C50.8141 37.3057 69.1229 49.991 96.9567 26.2716C121.676 5.20651 141.86 38.4424 142.001 54.3586C142.184 74.9765 117.282 91.4734 129.366 105.015C141.451 118.557 105.4 140.92 85.9703 121.567C61.8003 97.492 55.2523 117.053 41.4755 117.053C31.5877 117.053 11.2871 94.6204 24.9959 77.9315C36.5316 63.8881 30.2402 59.2273 27.1936 54.3586C22.7988 47.3368 33.2359 28.2778 50.8141 37.3057Z" fill="#FFDFDF"/>
<path d="M132.461 28.6585C132.461 28.9706 132.446 29.278 132.416 29.5825C132.151 32.3336 130.716 34.8802 128.418 36.677C126.121 38.4738 123.145 39.3778 120.127 39.1954C117.109 39.013 114.289 37.7587 112.271 35.7012C110.253 33.6436 109.198 30.9465 109.332 28.1874C109.466 25.4284 110.777 22.8268 112.986 20.94C115.195 19.0531 118.125 18.031 121.149 18.0926C124.173 18.1542 127.05 19.2946 129.165 21.2694C131.279 23.2443 132.462 25.8967 132.461 28.6585Z" fill="#A2BDFF"/>
<path d="M122.351 29.4673C121.604 29.9974 120.561 31.0533 120.876 33.4026C120.526 34.3145 119.282 36.0565 119.282 36.8895C119.282 37.7226 117.789 37.8744 117.623 37.6466C117.457 37.4187 117.374 34.5414 116.462 34.0112C115.549 33.4811 115.715 31.0575 115.715 31.0575C115.715 31.0575 116.047 30.1486 114.968 29.5427C113.89 28.9368 113.139 27.4978 114.096 26.6647C115.051 25.8315 112.48 25.3014 112.148 24.6955C112.007 24.4383 111.466 23.8624 110.892 23.2883C112.133 21.3692 114.005 19.8556 116.241 18.9622C117.089 19.7707 117.822 20.8056 117.623 21.8932C117.656 22.4233 120.176 23.2565 118.942 24.3922C117.706 25.5283 116.029 27.119 118.942 27.6489C121.853 28.1799 123.098 28.9369 122.351 29.4673Z" fill="#0071FF"/>
<path d="M128.977 21.0984C128.357 22.2935 126.801 23.2569 125.918 23.2569C124.923 22.272 122.766 23.6356 122.564 22.0451C122.446 21.1181 123.604 19.679 124.591 18.637C126.237 19.1468 127.736 19.988 128.977 21.0984Z" fill="#0071FF"/>
<path d="M132.417 29.5825C132.17 32.1977 130.862 34.6345 128.75 36.4155C128.367 36.0807 128.043 35.6884 128.158 35.3749C128.407 34.6933 129.419 33.2542 129.245 32.3454C129.082 31.4971 129.94 28.9312 132.417 29.5825Z" fill="#0071FF"/>
<path d="M113.579 82.0868C113.209 84.1735 112.596 86.218 111.75 88.1858C106.24 101.073 91.4592 109.146 75.904 106.825C67.3163 105.542 59.6382 101.197 54.5575 94.7468C49.4768 88.2964 47.4093 80.2679 48.8094 72.4261C48.8806 72.0282 48.9635 71.6271 49.0502 71.2366C52.5596 55.56 69.0342 45.0847 86.4848 47.6872C91.692 48.4558 96.6173 50.366 100.839 53.254C102.226 54.1996 103.527 55.2457 104.73 56.3821C108.302 59.7372 110.964 63.8101 112.501 68.274C114.038 72.738 114.407 77.4687 113.579 82.0865V82.0868Z" fill="#699CFF"/>
<path d="M111.75 88.1858C105.501 91.8591 98.1217 95.2565 89.986 98.0661C81.7018 100.925 73.5667 102.857 66.1106 103.869C48.5896 106.254 34.8295 103.589 31.7291 96.101C28.8256 89.1072 35.967 79.6343 49.0503 71.2367C48.9636 71.6271 48.8806 72.0283 48.8095 72.4261C48.548 73.8824 48.4061 75.3546 48.385 76.8302C40.847 82.1443 36.9241 87.3487 38.4705 91.0819C39.974 94.7115 46.3576 96.2563 55.4388 95.8184C64.3168 95.3914 75.7731 93.0565 87.7644 88.9174C98.1355 85.3332 107.23 80.9764 114.002 76.6001C123.068 70.7483 127.985 64.8597 126.288 60.7518C124.543 56.5347 116.216 55.1291 104.73 56.3825C103.527 55.2461 102.226 54.2 100.839 53.2544C116.917 51.5578 129.31 54.3304 132.231 61.383C135.36 68.9261 126.826 79.34 111.75 88.1858Z" fill="#0071FF"/>
</svg>
