<svg width="24" height="24" viewBox="0 0 24 24" fill="none" xmlns="http://www.w3.org/2000/svg">
<path fill-rule="evenodd" clip-rule="evenodd" d="M9.55119 2.12775C10.0025 1.54608 10.6931 1.25 11.55 1.25H12.45C13.3069 1.25 13.9975 1.54608 14.4488 2.12775C14.8734 2.67498 15 3.36648 15 4V22C15 22.4142 14.6642 22.75 14.25 22.75H9.75C9.33579 22.75 9 22.4142 9 22V4C9 3.36648 9.12661 2.67498 9.55119 2.12775ZM10.7363 3.04725C10.5984 3.22502 10.5 3.53352 10.5 4V21.25H13.5V4C13.5 3.53352 13.4016 3.22502 13.2637 3.04725C13.1525 2.90392 12.9431 2.75 12.45 2.75H11.55C11.0569 2.75 10.8475 2.90392 10.7363 3.04725Z" fill="#8A8B8C"/>
<path fill-rule="evenodd" clip-rule="evenodd" d="M2.73259 8.1617C3.13881 7.57267 3.78345 7.25 4.6 7.25H5.4C6.21655 7.25 6.86119 7.57267 7.26741 8.1617C7.64103 8.70345 7.75 9.3804 7.75 10V22C7.75 22.4142 7.41421 22.75 7 22.75H3C2.58579 22.75 2.25 22.4142 2.25 22V10C2.25 9.3804 2.35897 8.70345 2.73259 8.1617ZM3.96741 9.0133C3.84103 9.19655 3.75 9.5196 3.75 10V21.25H6.25V10C6.25 9.5196 6.15897 9.19655 6.03259 9.0133C5.93881 8.87733 5.78345 8.75 5.4 8.75H4.6C4.21655 8.75 4.06119 8.87733 3.96741 9.0133Z" fill="#8A8B8C"/>
<path fill-rule="evenodd" clip-rule="evenodd" d="M16.7326 13.1617C17.1388 12.5727 17.7835 12.25 18.6 12.25H19.4C20.2165 12.25 20.8612 12.5727 21.2674 13.1617C21.641 13.7035 21.75 14.3804 21.75 15V22C21.75 22.4142 21.4142 22.75 21 22.75H17C16.5858 22.75 16.25 22.4142 16.25 22V15C16.25 14.3804 16.359 13.7035 16.7326 13.1617ZM17.9674 14.0133C17.841 14.1965 17.75 14.5196 17.75 15V21.25H20.25V15C20.25 14.5196 20.159 14.1965 20.0326 14.0133C19.9388 13.8773 19.7835 13.75 19.4 13.75H18.6C18.2165 13.75 18.0612 13.8773 17.9674 14.0133Z" fill="#8A8B8C"/>
</svg>
