<svg width="26" height="26" viewBox="0 0 26 26" fill="none" xmlns="http://www.w3.org/2000/svg">
<path d="M13 2.16663C7.03085 2.16663 2.16669 7.03079 2.16669 13C2.16669 18.9691 7.03085 23.8333 13 23.8333C18.9692 23.8333 23.8334 18.9691 23.8334 13C23.8334 7.03079 18.9692 2.16663 13 2.16663ZM17.3984 12.2091L13.5742 16.0333C13.4117 16.1958 13.2059 16.2716 13 16.2716C12.7942 16.2716 12.5884 16.1958 12.4259 16.0333L8.60169 12.2091C8.28752 11.895 8.28752 11.375 8.60169 11.0608C8.91585 10.7466 9.43585 10.7466 9.75002 11.0608L13 14.3108L16.25 11.0608C16.5642 10.7466 17.0842 10.7466 17.3984 11.0608C17.7125 11.375 17.7125 11.8841 17.3984 12.2091Z" fill="#0071FF"/>
</svg>
