<svg width="16" height="16" viewBox="0 0 16 16" fill="none" xmlns="http://www.w3.org/2000/svg">
<path d="M14.3736 7.15981L13.4669 6.10648C13.2936 5.90648 13.1536 5.53315 13.1536 5.26648V4.13315C13.1536 3.42648 12.5736 2.84648 11.8669 2.84648H10.7336C10.4736 2.84648 10.0936 2.70648 9.89358 2.53315L8.84025 1.62648C8.38025 1.23315 7.62691 1.23315 7.16025 1.62648L6.11358 2.53982C5.91358 2.70648 5.53358 2.84648 5.27358 2.84648H4.12025C3.41358 2.84648 2.83358 3.42648 2.83358 4.13315V5.27315C2.83358 5.53315 2.69358 5.90648 2.52691 6.10648L1.62691 7.16648C1.24025 7.62648 1.24025 8.37315 1.62691 8.83315L2.52691 9.89315C2.69358 10.0931 2.83358 10.4665 2.83358 10.7265V11.8665C2.83358 12.5731 3.41358 13.1531 4.12025 13.1531H5.27358C5.53358 13.1531 5.91358 13.2931 6.11358 13.4665L7.16691 14.3731C7.62691 14.7665 8.38025 14.7665 8.84691 14.3731L9.90025 13.4665C10.1002 13.2931 10.4736 13.1531 10.7402 13.1531H11.8736C12.5802 13.1531 13.1602 12.5731 13.1602 11.8665V10.7331C13.1602 10.4731 13.3002 10.0931 13.4736 9.89315L14.3802 8.83982C14.7669 8.37982 14.7669 7.61981 14.3736 7.15981ZM10.7736 6.73981L7.55358 9.95982C7.46025 10.0531 7.33358 10.1065 7.20025 10.1065C7.06691 10.1065 6.94025 10.0531 6.84691 9.95982L5.23358 8.34648C5.04025 8.15315 5.04025 7.83315 5.23358 7.63982C5.42691 7.44648 5.74691 7.44648 5.94025 7.63982L7.20025 8.89982L10.0669 6.03315C10.2602 5.83982 10.5802 5.83982 10.7736 6.03315C10.9669 6.22648 10.9669 6.54648 10.7736 6.73981Z" fill="#2DE577"/>
</svg>
