<svg width="24" height="24" viewBox="0 0 24 24" fill="none" xmlns="http://www.w3.org/2000/svg">
<path fill-rule="evenodd" clip-rule="evenodd" d="M11.4837 1.26899C12.5191 1.24471 13.5961 1.50778 14.4501 2.10561L20.6288 6.43474C20.6291 6.43489 20.6286 6.43458 20.6288 6.43474C21.2484 6.86678 21.7707 7.53289 22.1361 8.23297C22.5017 8.93336 22.75 9.74283 22.75 10.5V17.78C22.75 20.5031 20.5254 22.74 17.79 22.74H6.21C3.47347 22.74 1.25 20.5019 1.25 17.77V10.36C1.25 9.64956 1.47441 8.88055 1.80418 8.20842C2.134 7.53621 2.60552 6.88688 3.16901 6.44843L8.55901 2.24843C9.38375 1.60698 10.4482 1.29327 11.4837 1.26899ZM9.48046 3.43205C9.48037 3.43212 9.48054 3.43198 9.48046 3.43205L4.09099 7.63164C3.75471 7.89318 3.4109 8.33907 3.15082 8.86915C2.89059 9.39952 2.75 9.94051 2.75 10.36V17.77C2.75 19.6781 4.30653 21.24 6.21 21.24H17.79C19.6946 21.24 21.25 19.677 21.25 17.78V10.5C21.25 10.0472 21.0933 9.47671 20.8064 8.9271C20.5195 8.37743 20.1413 7.9233 19.7712 7.66533L19.7696 7.66427L13.5899 3.33446C13.5898 3.3344 13.59 3.33452 13.5899 3.33446C13.044 2.95241 12.2958 2.75036 11.5188 2.76858C10.7419 2.7868 10.0057 3.02363 9.48046 3.43205Z" fill="#8A8B8C"/>
<path fill-rule="evenodd" clip-rule="evenodd" d="M12 14.24C12.4142 14.24 12.75 14.5758 12.75 14.99V17.99C12.75 18.4042 12.4142 18.74 12 18.74C11.5858 18.74 11.25 18.4042 11.25 17.99V14.99C11.25 14.5758 11.5858 14.24 12 14.24Z" fill="#8A8B8C"/>
</svg>
