<svg width="24" height="24" viewBox="0 0 24 24" fill="none" xmlns="http://www.w3.org/2000/svg">
<path fill-rule="evenodd" clip-rule="evenodd" d="M1.25 12C1.25 6.08579 6.08579 1.25 12 1.25C17.9142 1.25 22.75 6.08579 22.75 12C22.75 17.9142 17.9142 22.75 12 22.75C6.08579 22.75 1.25 17.9142 1.25 12ZM12 2.75C6.91421 2.75 2.75 6.91421 2.75 12C2.75 17.0858 6.91421 21.25 12 21.25C17.0858 21.25 21.25 17.0858 21.25 12C21.25 6.91421 17.0858 2.75 12 2.75Z" fill="#8A8B8C"/>
<path fill-rule="evenodd" clip-rule="evenodd" d="M12 10.25C12.4142 10.25 12.75 10.5858 12.75 11V16C12.75 16.4142 12.4142 16.75 12 16.75C11.5858 16.75 11.25 16.4142 11.25 16V11C11.25 10.5858 11.5858 10.25 12 10.25Z" fill="#8A8B8C"/>
<path fill-rule="evenodd" clip-rule="evenodd" d="M11 8C11 7.44772 11.4477 7 12 7H12.0039C12.5562 7 13.0039 7.44772 13.0039 8C13.0039 8.55228 12.5562 9 12.0039 9H12C11.4477 9 11 8.55228 11 8Z" fill="#8A8B8C"/>
</svg>
