<svg width="24" height="24" viewBox="0 0 24 24" fill="none" xmlns="http://www.w3.org/2000/svg">
<path fill-rule="evenodd" clip-rule="evenodd" d="M6.16024 6.1096C6.45318 6.40244 6.45326 6.87732 6.16042 7.17026C5.0069 8.32415 4.22143 9.79416 3.90332 11.3944C3.58521 12.9947 3.74875 14.6534 4.37325 16.1607C4.99775 17.668 6.05518 18.9563 7.41183 19.8627C8.76847 20.7692 10.3634 21.2529 11.995 21.2529C13.6266 21.2529 15.2215 20.7692 16.5782 19.8627C17.9348 18.9563 18.9922 17.668 19.6167 16.1607C20.2413 14.6534 20.4048 12.9947 20.0867 11.3944C19.7686 9.79416 18.9831 8.32415 17.8296 7.17026C17.5367 6.87732 17.5368 6.40244 17.8298 6.1096C18.1227 5.81675 18.5976 5.81683 18.8904 6.10977C20.2537 7.47346 21.1819 9.21075 21.5579 11.102C21.9338 12.9932 21.7406 14.9534 21.0025 16.7348C20.2645 18.5162 19.0148 20.0388 17.4115 21.11C15.8082 22.1812 13.9232 22.7529 11.995 22.7529C10.0668 22.7529 8.18183 22.1812 6.57852 21.11C4.97521 20.0388 3.72553 18.5162 2.98748 16.7348C2.24943 14.9534 2.05616 12.9932 2.43211 11.102C2.80806 9.21075 3.73634 7.47346 5.09958 6.10977C5.39243 5.81683 5.8673 5.81675 6.16024 6.1096Z" fill="#8A8B8C"/>
<path fill-rule="evenodd" clip-rule="evenodd" d="M12 3.25C12.4142 3.25 12.75 3.58579 12.75 4V10C12.75 10.4142 12.4142 10.75 12 10.75C11.5858 10.75 11.25 10.4142 11.25 10V4C11.25 3.58579 11.5858 3.25 12 3.25Z" fill="#8A8B8C"/>
</svg>
